<svg xmlns="http://www.w3.org/2000/svg" width="1200" height="336" viewBox="0 0 1200 336" font-family="ui-sans-serif,-apple-system,'Segoe UI',Helvetica,Arial,sans-serif" role="img" aria-label="Project map"><path d="M104,168.0 C220,168.0 250,57.0 330,57.0" fill="none" stroke="#0969da" stroke-width="1.6" opacity=".6" ></path><g opacity="0"><circle r="3.2" fill="#1a7f37"/><animateMotion path="M104,168.0 C220,168.0 250,57.0 330,57.0" dur="2.4s" begin="1.5s" repeatCount="indefinite"/><animate attributeName="opacity" values="0;1;1;0" keyTimes="0;.1;.85;1" dur="2.4s" begin="1.5s" repeatCount="indefinite"/></g><g><rect x="330" y="35.0" width="300" height="44" rx="22" fill="#f6f8fa" stroke="#d0d7de"/><text x="352" y="63.0" font-size="17" font-weight="600" fill="#1f2328">For clients</text><text x="612" y="63.0" text-anchor="end" font-size="17" font-weight="700" fill="#0969da">10</text></g><g><rect x="660.0" y="51.0" width="298.0" height="12" rx="3" fill="#8b949e" opacity="0.35"/><text x="978" y="62.0" font-size="14" fill="#59636e">6 private · 4 public</text></g><path d="M104,168.0 C220,168.0 250,131.0 330,131.0" fill="none" stroke="#0969da" stroke-width="1.6" opacity=".6" ></path><g opacity="0"><circle r="3.2" fill="#1a7f37"/><animateMotion path="M104,168.0 C220,168.0 250,131.0 330,131.0" dur="2.4s" begin="2.1s" repeatCount="indefinite"/><animate attributeName="opacity" values="0;1;1;0" keyTimes="0;.1;.85;1" dur="2.4s" begin="2.1s" repeatCount="indefinite"/></g><g><rect x="330" y="109.0" width="300" height="44" rx="22" fill="#f6f8fa" stroke="#d0d7de"/><text x="352" y="137.0" font-size="17" font-weight="600" fill="#1f2328">For my company (Audicom)</text><text x="612" y="137.0" text-anchor="end" font-size="17" font-weight="700" fill="#0969da">14</text></g><g><rect x="660.0" y="125.0" width="298.0" height="12" rx="3" fill="#8b949e" opacity="0.35"/><text x="978" y="136.0" font-size="14" fill="#59636e">7 private · 7 public</text></g><path d="M104,168.0 C220,168.0 250,205.0 330,205.0" fill="none" stroke="#0969da" stroke-width="1.6" opacity=".6" ></path><g opacity="0"><circle r="3.2" fill="#1a7f37"/><animateMotion path="M104,168.0 C220,168.0 250,205.0 330,205.0" dur="2.4s" begin="2.7s" repeatCount="indefinite"/><animate attributeName="opacity" values="0;1;1;0" keyTimes="0;.1;.85;1" dur="2.4s" begin="2.7s" repeatCount="indefinite"/></g><g><rect x="330" y="183.0" width="300" height="44" rx="22" fill="#f6f8fa" stroke="#d0d7de"/><text x="352" y="211.0" font-size="17" font-weight="600" fill="#1f2328">Personal projects</text><text x="612" y="211.0" text-anchor="end" font-size="17" font-weight="700" fill="#0969da">13</text></g><g><rect x="660.0" y="199.0" width="298.0" height="12" rx="3" fill="#8b949e" opacity="0.35"/><text x="978" y="210.0" font-size="14" fill="#59636e">7 private · 6 public</text></g><path d="M104,168.0 C220,168.0 250,279.0 330,279.0" fill="none" stroke="#0969da" stroke-width="1.6" opacity=".6" ></path><g opacity="0"><circle r="3.2" fill="#1a7f37"/><animateMotion path="M104,168.0 C220,168.0 250,279.0 330,279.0" dur="2.4s" begin="3.3s" repeatCount="indefinite"/><animate attributeName="opacity" values="0;1;1;0" keyTimes="0;.1;.85;1" dur="2.4s" begin="3.3s" repeatCount="indefinite"/></g><g><rect x="330" y="257.0" width="300" height="44" rx="22" fill="#f6f8fa" stroke="#d0d7de"/><text x="352" y="285.0" font-size="17" font-weight="600" fill="#1f2328">College &amp; study</text><text x="612" y="285.0" text-anchor="end" font-size="17" font-weight="700" fill="#0969da">2</text></g><g><rect x="660.0" y="273.0" width="298.0" height="12" rx="3" fill="#8b949e" opacity="0.35"/><text x="978" y="284.0" font-size="14" fill="#59636e">0 private · 2 public</text></g><circle cx="70" cy="168.0" r="34" fill="#f6f8fa" stroke="#0969da" stroke-width="2"/><circle cx="70" cy="168.0" r="34" fill="none" stroke="#0969da" stroke-width="2"><animate attributeName="r" values="34;50" dur="2.6s" repeatCount="indefinite"/><animate attributeName="opacity" values=".5;0" dur="2.6s" repeatCount="indefinite"/></circle><text x="70" y="173.0" text-anchor="middle" font-family="ui-monospace,SFMono-Regular,'Cascadia Code',Consolas,monospace" font-size="13" font-weight="600" fill="#1f2328">davicjc</text></svg>